<?xml version="1.0" encoding="UTF-8" standalone="no"?>
<!DOCTYPE svg PUBLIC "-//W3C//DTD SVG 1.1//EN"
 "http://www.w3.org/Graphics/SVG/1.1/DTD/svg11.dtd">
<!-- Generated by graphviz version 12.1.0 (20240811.2233)
 -->
<!-- Title: G Pages: 1 -->
<svg width="669pt" height="414pt"
 viewBox="0.00 0.00 669.08 413.50" xmlns="http://www.w3.org/2000/svg" xmlns:xlink="http://www.w3.org/1999/xlink">
<g id="graph0" class="graph" transform="scale(1 1) rotate(0) translate(4 409.5)">
<title>G</title>
<polygon fill="white" stroke="none" points="-4,4 -4,-409.5 665.08,-409.5 665.08,4 -4,4"/>
<g id="clust1" class="cluster">
<title>cluster_Hardware</title>
<polygon fill="none" stroke="black" points="543,-8 543,-84.5 637,-84.5 637,-8 543,-8"/>
<text text-anchor="middle" x="590" y="-67.2" font-family="Times,serif" font-size="14.00">Hardware</text>
</g>
<g id="clust2" class="cluster">
<title>cluster_Kernel</title>
<polygon fill="none" stroke="black" points="8,-92.5 8,-313 640,-313 640,-92.5 8,-92.5"/>
<text text-anchor="middle" x="324" y="-295.7" font-family="Times,serif" font-size="14.00">Kernel</text>
</g>
<g id="clust3" class="cluster">
<title>cluster_UserSpace</title>
<polygon fill="none" stroke="black" points="426,-321 426,-397.5 528,-397.5 528,-321 426,-321"/>
<text text-anchor="middle" x="477" y="-380.2" font-family="Times,serif" font-size="14.00">User Space</text>
</g>
<!-- Drivers -->
<g id="node1" class="node">
<title>Drivers</title>
<ellipse fill="none" stroke="black" cx="590" cy="-34" rx="38.56" ry="18"/>
<text text-anchor="middle" x="590" y="-28.95" font-family="Times,serif" font-size="14.00">Drivers</text>
</g>
<!-- IO -->
<g id="node2" class="node">
<title>IO</title>
<ellipse fill="none" stroke="black" cx="402" cy="-190.5" rx="131.71" ry="18"/>
<text text-anchor="middle" x="402" y="-185.45" font-family="Times,serif" font-size="14.00">Kernel IO (Tasks, Processes, ...)</text>
</g>
<!-- KernelLoop -->
<g id="node3" class="node">
<title>KernelLoop</title>
<ellipse fill="none" stroke="black" cx="273" cy="-262.5" rx="55.45" ry="18"/>
<text text-anchor="middle" x="273" y="-257.45" font-family="Times,serif" font-size="14.00">KernelLoop</text>
</g>
<!-- KernelLoop&#45;&gt;Drivers -->
<g id="edge5" class="edge">
<title>KernelLoop&#45;&gt;Drivers</title>
<path fill="none" stroke="black" d="M325.11,-255.8C424.17,-244.73 630.74,-220.35 641,-208.5 674.76,-169.53 659.3,-140.7 641,-92.5 636.06,-79.47 626.66,-67.51 617.27,-57.91"/>
<polygon fill="black" stroke="black" points="619.86,-55.54 610.22,-51.15 615.02,-60.6 619.86,-55.54"/>
</g>
<!-- KernelLoop&#45;&gt;IO -->
<g id="edge2" class="edge">
<title>KernelLoop&#45;&gt;IO</title>
<path fill="none" stroke="black" d="M300.67,-246.48C318.2,-236.97 341.18,-224.5 360.83,-213.84"/>
<polygon fill="black" stroke="black" points="362.3,-217.03 369.42,-209.18 358.96,-210.87 362.3,-217.03"/>
</g>
<!-- MemoryManager -->
<g id="node4" class="node">
<title>MemoryManager</title>
<ellipse fill="none" stroke="black" cx="175" cy="-190.5" rx="76.94" ry="18"/>
<text text-anchor="middle" x="175" y="-185.45" font-family="Times,serif" font-size="14.00">MemoryManager</text>
</g>
<!-- KernelLoop&#45;&gt;MemoryManager -->
<g id="edge3" class="edge">
<title>KernelLoop&#45;&gt;MemoryManager</title>
<path fill="none" stroke="black" d="M250.76,-245.62C237.88,-236.42 221.45,-224.68 207.18,-214.48"/>
<polygon fill="black" stroke="black" points="209.58,-211.9 199.4,-208.93 205.51,-217.59 209.58,-211.9"/>
</g>
<!-- KWS -->
<g id="node8" class="node">
<title>KWS</title>
<ellipse fill="none" stroke="black" cx="48" cy="-190.5" rx="31.9" ry="18"/>
<text text-anchor="middle" x="48" y="-185.45" font-family="Times,serif" font-size="14.00">KWS</text>
</g>
<!-- KernelLoop&#45;&gt;KWS -->
<g id="edge4" class="edge">
<title>KernelLoop&#45;&gt;KWS</title>
<path fill="none" stroke="black" d="M230.18,-250.63C192.62,-240.75 136.69,-225.2 89,-208.5 87.07,-207.82 85.09,-207.1 83.11,-206.36"/>
<polygon fill="black" stroke="black" points="84.54,-203.16 73.95,-202.76 81.98,-209.67 84.54,-203.16"/>
</g>
<!-- KAPI -->
<g id="node5" class="node">
<title>KAPI</title>
<ellipse fill="none" stroke="black" cx="477" cy="-262.5" rx="32.41" ry="18"/>
<text text-anchor="middle" x="477" y="-257.45" font-family="Times,serif" font-size="14.00">KAPI</text>
</g>
<!-- KAPI&#45;&gt;IO -->
<g id="edge6" class="edge">
<title>KAPI&#45;&gt;IO</title>
<path fill="none" stroke="black" d="M461.09,-246.65C451.73,-237.91 439.64,-226.63 428.84,-216.55"/>
<polygon fill="black" stroke="black" points="431.33,-214.09 421.63,-209.82 426.56,-219.21 431.33,-214.09"/>
</g>
<!-- KAPI&#45;&gt;MemoryManager -->
<g id="edge7" class="edge">
<title>KAPI&#45;&gt;MemoryManager</title>
<path fill="none" stroke="black" d="M447.49,-254.66C399.51,-243.54 303.48,-221.28 239.21,-206.38"/>
<polygon fill="black" stroke="black" points="240.39,-203.06 229.86,-204.22 238.81,-209.88 240.39,-203.06"/>
</g>
<!-- Misc -->
<g id="node6" class="node">
<title>Misc</title>
<ellipse fill="none" stroke="black" cx="602" cy="-190.5" rx="29.86" ry="18"/>
<text text-anchor="middle" x="602" y="-185.45" font-family="Times,serif" font-size="14.00">Misc</text>
</g>
<!-- KAPI&#45;&gt;Misc -->
<g id="edge9" class="edge">
<title>KAPI&#45;&gt;Misc</title>
<path fill="none" stroke="black" d="M499.35,-248.99C519.23,-237.85 548.52,-221.45 570.73,-209.01"/>
<polygon fill="black" stroke="black" points="572.34,-212.12 579.36,-204.18 568.92,-206.01 572.34,-212.12"/>
</g>
<!-- Libraries -->
<g id="node7" class="node">
<title>Libraries</title>
<ellipse fill="none" stroke="black" cx="588" cy="-118.5" rx="44.19" ry="18"/>
<text text-anchor="middle" x="588" y="-113.45" font-family="Times,serif" font-size="14.00">Libraries</text>
</g>
<!-- KAPI&#45;&gt;Libraries -->
<g id="edge8" class="edge">
<title>KAPI&#45;&gt;Libraries</title>
<path fill="none" stroke="black" d="M497.7,-248.35C511.78,-238.63 530.14,-224.37 543,-208.5 547.3,-203.2 563.37,-170.67 575.08,-146.46"/>
<polygon fill="black" stroke="black" points="578.1,-148.26 579.29,-137.74 571.79,-145.23 578.1,-148.26"/>
</g>
<!-- Misc&#45;&gt;Libraries -->
<g id="edge10" class="edge">
<title>Misc&#45;&gt;Libraries</title>
<path fill="none" stroke="black" d="M598.54,-172.2C597.06,-164.82 595.3,-156.02 593.65,-147.75"/>
<polygon fill="black" stroke="black" points="597.11,-147.21 591.72,-138.09 590.25,-148.58 597.11,-147.21"/>
</g>
<!-- Libraries&#45;&gt;Drivers -->
<g id="edge1" class="edge">
<title>Libraries&#45;&gt;Drivers</title>
<path fill="none" stroke="black" d="M588.42,-100C588.68,-89.5 589.01,-75.89 589.3,-63.83"/>
<polygon fill="black" stroke="black" points="592.8,-64.07 589.54,-53.98 585.8,-63.9 592.8,-64.07"/>
</g>
<!-- Program -->
<g id="node9" class="node">
<title>Program</title>
<ellipse fill="none" stroke="black" cx="477" cy="-347" rx="43.16" ry="18"/>
<text text-anchor="middle" x="477" y="-341.95" font-family="Times,serif" font-size="14.00">Program</text>
</g>
<!-- Program&#45;&gt;KAPI -->
<g id="edge11" class="edge">
<title>Program&#45;&gt;KAPI</title>
<path fill="none" stroke="black" d="M477,-328.5C477,-318 477,-304.39 477,-292.33"/>
<polygon fill="black" stroke="black" points="480.5,-292.48 477,-282.48 473.5,-292.48 480.5,-292.48"/>
</g>
</g>
</svg>
