<?xml version="1.0" encoding="UTF-8" standalone="no"?>
<!DOCTYPE svg PUBLIC "-//W3C//DTD SVG 1.1//EN"
 "http://www.w3.org/Graphics/SVG/1.1/DTD/svg11.dtd">
<!-- Generated by graphviz version 12.1.0 (20240811.2233)
 -->
<!-- Title: G Pages: 1 -->
<svg width="1185pt" height="260pt"
 viewBox="0.00 0.00 1185.47 260.00" xmlns="http://www.w3.org/2000/svg" xmlns:xlink="http://www.w3.org/1999/xlink">
<g id="graph0" class="graph" transform="scale(1 1) rotate(0) translate(4 256)">
<title>G</title>
<polygon fill="white" stroke="none" points="-4,4 -4,-256 1181.47,-256 1181.47,4 -4,4"/>
<!-- VFS -->
<g id="node1" class="node">
<title>VFS</title>
<ellipse fill="none" stroke="black" cx="799" cy="-234" rx="27.81" ry="18"/>
<text text-anchor="middle" x="799" y="-228.95" font-family="Times,serif" font-size="14.00">VFS</text>
</g>
<!-- MountPoints -->
<g id="node2" class="node">
<title>MountPoints</title>
<ellipse fill="none" stroke="black" cx="561" cy="-162" rx="59.03" ry="18"/>
<text text-anchor="middle" x="561" y="-156.95" font-family="Times,serif" font-size="14.00">MountPoints</text>
</g>
<!-- VFS&#45;&gt;MountPoints -->
<g id="edge1" class="edge">
<title>VFS&#45;&gt;MountPoints</title>
<path fill="none" stroke="black" d="M773.98,-225.64C736.03,-214.48 663.08,-193.02 613.24,-178.36"/>
<polygon fill="black" stroke="black" points="614.38,-175.05 603.8,-175.59 612.41,-181.77 614.38,-175.05"/>
</g>
<!-- VFSRead -->
<g id="node3" class="node">
<title>VFSRead</title>
<ellipse fill="none" stroke="black" cx="685" cy="-162" rx="46.75" ry="18"/>
<text text-anchor="middle" x="685" y="-156.95" font-family="Times,serif" font-size="14.00">VFSRead</text>
</g>
<!-- VFS&#45;&gt;VFSRead -->
<g id="edge2" class="edge">
<title>VFS&#45;&gt;VFSRead</title>
<path fill="none" stroke="black" d="M779.4,-220.97C762.74,-210.73 738.44,-195.81 718.66,-183.67"/>
<polygon fill="black" stroke="black" points="720.73,-180.83 710.38,-178.58 717.07,-186.8 720.73,-180.83"/>
</g>
<!-- VFSWrite -->
<g id="node4" class="node">
<title>VFSWrite</title>
<ellipse fill="none" stroke="black" cx="799" cy="-162" rx="48.79" ry="18"/>
<text text-anchor="middle" x="799" y="-156.95" font-family="Times,serif" font-size="14.00">VFSWrite</text>
</g>
<!-- VFS&#45;&gt;VFSWrite -->
<g id="edge3" class="edge">
<title>VFS&#45;&gt;VFSWrite</title>
<path fill="none" stroke="black" d="M799,-215.7C799,-208.41 799,-199.73 799,-191.54"/>
<polygon fill="black" stroke="black" points="802.5,-191.62 799,-181.62 795.5,-191.62 802.5,-191.62"/>
</g>
<!-- VFSList -->
<g id="node5" class="node">
<title>VFSList</title>
<ellipse fill="none" stroke="black" cx="908" cy="-162" rx="42.14" ry="18"/>
<text text-anchor="middle" x="908" y="-156.95" font-family="Times,serif" font-size="14.00">VFSList</text>
</g>
<!-- VFS&#45;&gt;VFSList -->
<g id="edge4" class="edge">
<title>VFS&#45;&gt;VFSList</title>
<path fill="none" stroke="black" d="M818.24,-220.65C834.19,-210.4 857.22,-195.61 875.95,-183.58"/>
<polygon fill="black" stroke="black" points="877.77,-186.57 884.3,-178.22 873.99,-180.68 877.77,-186.57"/>
</g>
<!-- VFSMount -->
<g id="node6" class="node">
<title>VFSMount</title>
<ellipse fill="none" stroke="black" cx="1021" cy="-162" rx="52.89" ry="18"/>
<text text-anchor="middle" x="1021" y="-156.95" font-family="Times,serif" font-size="14.00">VFSMount</text>
</g>
<!-- VFS&#45;&gt;VFSMount -->
<g id="edge5" class="edge">
<title>VFS&#45;&gt;VFSMount</title>
<path fill="none" stroke="black" d="M823.61,-225.24C859.38,-213.96 926.48,-192.8 972.43,-178.31"/>
<polygon fill="black" stroke="black" points="973.41,-181.68 981.89,-175.33 971.3,-175 973.41,-181.68"/>
</g>
<!-- Mount1 -->
<g id="node7" class="node">
<title>Mount1</title>
<ellipse fill="none" stroke="black" cx="244" cy="-90" rx="40.6" ry="18"/>
<text text-anchor="middle" x="244" y="-84.95" font-family="Times,serif" font-size="14.00">Mount1</text>
</g>
<!-- MountPoints&#45;&gt;Mount1 -->
<g id="edge6" class="edge">
<title>MountPoints&#45;&gt;Mount1</title>
<path fill="none" stroke="black" d="M514.23,-150.67C454.2,-137.42 350.67,-114.56 290.69,-101.31"/>
<polygon fill="black" stroke="black" points="291.65,-97.94 281.13,-99.2 290.14,-104.77 291.65,-97.94"/>
</g>
<!-- Mount2 -->
<g id="node8" class="node">
<title>Mount2</title>
<ellipse fill="none" stroke="black" cx="561" cy="-90" rx="40.6" ry="18"/>
<text text-anchor="middle" x="561" y="-84.95" font-family="Times,serif" font-size="14.00">Mount2</text>
</g>
<!-- MountPoints&#45;&gt;Mount2 -->
<g id="edge7" class="edge">
<title>MountPoints&#45;&gt;Mount2</title>
<path fill="none" stroke="black" d="M561,-143.7C561,-136.41 561,-127.73 561,-119.54"/>
<polygon fill="black" stroke="black" points="564.5,-119.62 561,-109.62 557.5,-119.62 564.5,-119.62"/>
</g>
<!-- Mount3 -->
<g id="node9" class="node">
<title>Mount3</title>
<ellipse fill="none" stroke="black" cx="873" cy="-90" rx="40.6" ry="18"/>
<text text-anchor="middle" x="873" y="-84.95" font-family="Times,serif" font-size="14.00">Mount3</text>
</g>
<!-- MountPoints&#45;&gt;Mount3 -->
<g id="edge8" class="edge">
<title>MountPoints&#45;&gt;Mount3</title>
<path fill="none" stroke="black" d="M605.21,-149.74C613.12,-147.78 621.3,-145.8 629,-144 697.19,-128.07 776.49,-111.14 825.71,-100.82"/>
<polygon fill="black" stroke="black" points="826.4,-104.25 835.47,-98.77 824.97,-97.4 826.4,-104.25"/>
</g>
<!-- Mount1Name -->
<g id="node10" class="node">
<title>Mount1Name</title>
<polygon fill="none" stroke="black" points="54,-36 0,-36 0,0 54,0 54,-36"/>
<text text-anchor="middle" x="27" y="-12.95" font-family="Times,serif" font-size="14.00">/tmp</text>
</g>
<!-- Mount1&#45;&gt;Mount1Name -->
<g id="edge9" class="edge">
<title>Mount1&#45;&gt;Mount1Name</title>
<path fill="none" stroke="black" d="M209.11,-80.52C174.49,-71.72 119.86,-56.84 64.94,-36.45"/>
<polygon fill="black" stroke="black" points="66.33,-33.24 55.74,-32.98 63.86,-39.79 66.33,-33.24"/>
</g>
<!-- Mount1Read -->
<g id="node11" class="node">
<title>Mount1Read</title>
<ellipse fill="none" stroke="black" cx="125" cy="-18" rx="52.89" ry="18"/>
<text text-anchor="middle" x="125" y="-12.95" font-family="Times,serif" font-size="14.00">ramfs_read</text>
</g>
<!-- Mount1&#45;&gt;Mount1Read -->
<g id="edge10" class="edge">
<title>Mount1&#45;&gt;Mount1Read</title>
<path fill="none" stroke="black" d="M220.2,-75C203.11,-64.95 179.77,-51.22 160.48,-39.87"/>
<polygon fill="black" stroke="black" points="162.52,-37.01 152.12,-34.95 158.97,-43.04 162.52,-37.01"/>
</g>
<!-- Mount1List -->
<g id="node12" class="node">
<title>Mount1List</title>
<ellipse fill="none" stroke="black" cx="244" cy="-18" rx="48.28" ry="18"/>
<text text-anchor="middle" x="244" y="-12.95" font-family="Times,serif" font-size="14.00">ramfs_list</text>
</g>
<!-- Mount1&#45;&gt;Mount1List -->
<g id="edge11" class="edge">
<title>Mount1&#45;&gt;Mount1List</title>
<path fill="none" stroke="black" d="M244,-71.7C244,-64.41 244,-55.73 244,-47.54"/>
<polygon fill="black" stroke="black" points="247.5,-47.62 244,-37.62 240.5,-47.62 247.5,-47.62"/>
</g>
<!-- Mount1Write -->
<g id="node13" class="node">
<title>Mount1Write</title>
<ellipse fill="none" stroke="black" cx="366" cy="-18" rx="55.96" ry="18"/>
<text text-anchor="middle" x="366" y="-12.95" font-family="Times,serif" font-size="14.00">ramfs_write</text>
</g>
<!-- Mount1&#45;&gt;Mount1Write -->
<g id="edge12" class="edge">
<title>Mount1&#45;&gt;Mount1Write</title>
<path fill="none" stroke="black" d="M268.1,-75.17C285.61,-65.13 309.6,-51.36 329.46,-39.97"/>
<polygon fill="black" stroke="black" points="331.16,-43.02 338.09,-35.01 327.68,-36.95 331.16,-43.02"/>
</g>
<!-- Mount2Name -->
<g id="node14" class="node">
<title>Mount2Name</title>
<polygon fill="none" stroke="black" points="494,-36 440,-36 440,0 494,0 494,-36"/>
<text text-anchor="middle" x="467" y="-12.95" font-family="Times,serif" font-size="14.00">/data</text>
</g>
<!-- Mount2&#45;&gt;Mount2Name -->
<g id="edge13" class="edge">
<title>Mount2&#45;&gt;Mount2Name</title>
<path fill="none" stroke="black" d="M541.07,-74.15C528.98,-65.16 513.27,-53.46 499.43,-43.15"/>
<polygon fill="black" stroke="black" points="501.55,-40.36 491.43,-37.2 497.36,-45.98 501.55,-40.36"/>
</g>
<!-- Mount2List -->
<g id="node15" class="node">
<title>Mount2List</title>
<ellipse fill="none" stroke="black" cx="561" cy="-18" rx="48.79" ry="18"/>
<text text-anchor="middle" x="561" y="-12.95" font-family="Times,serif" font-size="14.00">minix_list</text>
</g>
<!-- Mount2&#45;&gt;Mount2List -->
<g id="edge15" class="edge">
<title>Mount2&#45;&gt;Mount2List</title>
<path fill="none" stroke="black" d="M561,-71.7C561,-64.41 561,-55.73 561,-47.54"/>
<polygon fill="black" stroke="black" points="564.5,-47.62 561,-37.62 557.5,-47.62 564.5,-47.62"/>
</g>
<!-- Mount2Read -->
<g id="node16" class="node">
<title>Mount2Read</title>
<ellipse fill="none" stroke="black" cx="681" cy="-18" rx="53.4" ry="18"/>
<text text-anchor="middle" x="681" y="-12.95" font-family="Times,serif" font-size="14.00">minix_read</text>
</g>
<!-- Mount2&#45;&gt;Mount2Read -->
<g id="edge14" class="edge">
<title>Mount2&#45;&gt;Mount2Read</title>
<path fill="none" stroke="black" d="M585,-75C602.24,-64.95 625.77,-51.22 645.22,-39.87"/>
<polygon fill="black" stroke="black" points="646.78,-43.01 653.66,-34.95 643.26,-36.96 646.78,-43.01"/>
</g>
<!-- Mount3Name -->
<g id="node17" class="node">
<title>Mount3Name</title>
<polygon fill="none" stroke="black" points="806,-36 752,-36 752,0 806,0 806,-36"/>
<text text-anchor="middle" x="779" y="-12.95" font-family="Times,serif" font-size="14.00">/dev</text>
</g>
<!-- Mount3&#45;&gt;Mount3Name -->
<g id="edge16" class="edge">
<title>Mount3&#45;&gt;Mount3Name</title>
<path fill="none" stroke="black" d="M853.07,-74.15C840.98,-65.16 825.27,-53.46 811.43,-43.15"/>
<polygon fill="black" stroke="black" points="813.55,-40.36 803.43,-37.2 809.36,-45.98 813.55,-40.36"/>
</g>
<!-- Mount3List -->
<g id="node18" class="node">
<title>Mount3List</title>
<ellipse fill="none" stroke="black" cx="873" cy="-18" rx="48.79" ry="18"/>
<text text-anchor="middle" x="873" y="-12.95" font-family="Times,serif" font-size="14.00">driver_list</text>
</g>
<!-- Mount3&#45;&gt;Mount3List -->
<g id="edge18" class="edge">
<title>Mount3&#45;&gt;Mount3List</title>
<path fill="none" stroke="black" d="M873,-71.7C873,-64.41 873,-55.73 873,-47.54"/>
<polygon fill="black" stroke="black" points="876.5,-47.62 873,-37.62 869.5,-47.62 876.5,-47.62"/>
</g>
<!-- Mount3Read -->
<g id="node19" class="node">
<title>Mount3Read</title>
<ellipse fill="none" stroke="black" cx="993" cy="-18" rx="53.4" ry="18"/>
<text text-anchor="middle" x="993" y="-12.95" font-family="Times,serif" font-size="14.00">driver_read</text>
</g>
<!-- Mount3&#45;&gt;Mount3Read -->
<g id="edge17" class="edge">
<title>Mount3&#45;&gt;Mount3Read</title>
<path fill="none" stroke="black" d="M897,-75C914.24,-64.95 937.77,-51.22 957.22,-39.87"/>
<polygon fill="black" stroke="black" points="958.78,-43.01 965.66,-34.95 955.26,-36.96 958.78,-43.01"/>
</g>
<!-- Mount3Write -->
<g id="node20" class="node">
<title>Mount3Write</title>
<ellipse fill="none" stroke="black" cx="1121" cy="-18" rx="56.47" ry="18"/>
<text text-anchor="middle" x="1121" y="-12.95" font-family="Times,serif" font-size="14.00">driver_write</text>
</g>
<!-- Mount3&#45;&gt;Mount3Write -->
<g id="edge19" class="edge">
<title>Mount3&#45;&gt;Mount3Write</title>
<path fill="none" stroke="black" d="M906.7,-79.49C948.48,-67.7 1020.12,-47.48 1068.97,-33.69"/>
<polygon fill="black" stroke="black" points="1069.81,-37.09 1078.48,-31 1067.91,-30.35 1069.81,-37.09"/>
</g>
</g>
</svg>
